<?xml version="1.0" encoding="UTF-8"?>
<svg id="Layer_1" xmlns="http://www.w3.org/2000/svg" viewBox="0 0 389 388">
  <defs>
    <style>
      .cls-1 {
        fill: none;
        stroke: #000;
        stroke-miterlimit: 10;
        stroke-width: 13px;
      }
    </style>
  </defs>
  <ellipse class="cls-1" cx="195" cy="194" rx="184" ry="185"/>
  <path d="M343,196c-.49,18.47-5.23,33.31-9.14,45.58-1.05,3.31-3.08,9.59-6.86,17.42-2.2,4.57-4.34,8.29-6,11-2.48,4.11-7.7,5.17-11,3-3.54-2.33-4.48-8.14-1-12,3.11-5.38,7.91-14.49,11.78-26.58.4-1.26,6.88-22.13,6.22-44.42-1.31-44.85-31.04-80.14-37-87-1.33-6.33-2.67-12.67-4-19-1.33-2.67-2.67-5.33-4-8-12.24,3-21.64,2.26-28,1-14.25-2.82-19.81-9.5-37.48-13.14-8.08-1.67-14.22-1.76-19.52-1.86-5.43-.1-33.09-.19-62.69,14.71-16.48.07-16.43.17-16.31.29-1,4.33-2,8.67-3,13-4.27,2.86-10.47,7.43-17,14-34.94,35.13-35.12,82.89-35,92,.27,20.84,5.66,37.39,9,46,10.29,26.5,26.26,42.48,31,47,19.32,18.44,39.24,25.61,49,29,12.09,4.2,37.95,12.83,70,6,17.61-3.75,30.87-10.84,39-16,3.63-2.51,8.41-1.94,11,1,2.07,2.35,2.48,5.93,1,9-6.43,4.44-16.2,10.34-29,15-29.59,10.78-55.35,7.67-68,6-21.16-2.8-36.62-9.16-43-12-6.13-2.73-25.11-11.51-41.89-27.69-41.53-40.07-43.41-94.51-43.56-102.35-.23-11.87.19-62.91,40.45-104.96,42.07-43.94,95.97-44.99,106-45,3.98,0,65.67.85,109,48,18.24,19.85,27.2,41.65,30,49,4.03,10.57,10.63,28.4,10,52Z"/>
  <circle cx="293" cy="292" r="8"/>
  <g>
    <path d="M113.95,307c-1.51-1.4-1.95-3.14-1.95-5.18.04-21.98.02-43.96.04-65.94,0-.91.05-1.86.31-2.71.5-1.64,1.74-2.53,3.44-2.53,1.7,0,2.87.91,3.48,2.51.39,1.04.29,2.12.29,3.18,0,20.14,0,40.28,0,60.43q0,3.17,3.13,3.18c52.46,0,104.92,0,157.38.03,1.86,0,2.92-.15,2.92-2.53-.07-35.77-.05-71.53-.06-107.3,0-.23-.03-.45-.06-.79-.68.16-.63.78-.78,1.19-9.23,25.32-18.48,50.62-27.63,75.97-2.15,5.96-5.22,11.2-9.93,15.49-2.94,2.68-5.76,5.49-8.63,8.25-1.21,1.16-2.5,2.07-4.3,1.44-1.74-.61-2.5-1.99-2.63-3.7-.62-8.5-3.22-17.03-.52-25.5,2.72-8.53,5.98-16.88,9.01-25.31.36-1.01.7-2.03,1.12-3.01.98-2.31,2.92-3.25,4.96-2.44,1.89.75,2.75,2.74,1.95,4.98-2.63,7.35-5.1,14.77-8.06,21.99-2.63,6.41-3.04,12.87-2.06,19.59.24,1.62.78,1.36,1.69.57,4.2-3.66,7.84-7.7,9.78-13.09,5.5-15.27,11.07-30.51,16.68-45.74.66-1.78.34-2.63-1.49-3.18-2.2-.66-4.34-1.5-6.47-2.35-1.26-.5-1.96-.3-2.39,1.1-.55,1.83-1.24,3.62-1.98,5.39-.93,2.2-2.82,3.07-4.81,2.36-1.9-.68-2.83-2.72-2.05-4.93,1.91-5.41,3.9-10.8,5.87-16.19.96-2.62.97-2.63-1.79-2.63-30.71,0-61.42,0-92.13,0-.92,0-1.85.06-2.75-.09-1.97-.32-3.22-1.52-3.3-3.54-.08-1.93,1.02-3.2,2.88-3.62,1.1-.25,2.28-.26,3.42-.26,31.32-.01,62.65-.04,93.97.05,2.55,0,4.03-.58,4.58-3.19.31-1.48,1.01-2.88,1.56-4.32.46-1.21.05-1.73-1.23-1.67-.61.03-1.23,0-1.84,0-25.2,0-50.39,0-75.59,0-1.22,0-2.45.07-3.65-.3-1.75-.54-2.72-1.7-2.69-3.54.03-1.95,1.13-3.15,2.98-3.55.88-.19,1.83-.12,2.75-.12,26.42,0,52.84-.03,79.27.04,2.41,0,3.92-.47,4.42-3.05.4-2.06,2.59-4.36,1.51-5.91-.95-1.38-3.87-.43-5.9-.43-26.5-.03-53-.02-79.5-.02-3.88,0-5.48-1.04-5.52-3.6-.04-2.57,1.54-3.63,5.44-3.63,27.8,0,55.6,0,83.4,0,1.44,0,2.88-.17,4.24.67,1.22.77,1.17-.54,1.39-1.12,1.64-4.37,3.24-8.76,4.83-13.15.48-1.34,1.09-2.55,2.44-3.18.96-.45,1.18-1.34,1.5-2.2,1.36-3.74,2.71-7.49,4.08-11.22.42-1.15.75-2.53,1.97-2.99,1.93-.72,2.12-2.07,2.05-3.81-.1-2.52-.06-5.05-.01-7.58.05-2.58,1.41-4.14,3.57-4.22,2.15-.08,3.73,1.39,3.84,3.98.16,3.75.12,7.5.06,11.26-.02,1.52.43,2.43,1.96,2.88,1.76.51,3.48,1.19,5.18,1.88,2.64,1.07,3.47,2.82,2.54,5.49-1.38,3.98-2.84,7.93-4.3,11.88-.41,1.11-.68,2.16-.1,3.31.53,1.06.2,2.14-.27,3.1-4.58,9.42-5.16,19.39-5.09,29.7.27,39.21.11,78.42.11,117.64,0,2.27-.03,4.5-2.33,5.84H113.95ZM287.12,154.98c.15-1.05-.47-1.26-1.04-1.47-2.51-.92-5.05-1.78-7.53-2.76-1.31-.52-1.8.07-2.18,1.17-.78,2.24-1.61,4.45-2.42,6.68-3.9,10.7-7.76,21.4-11.73,32.07-.66,1.77-.37,2.62,1.49,3.15,1.98.56,3.94,1.26,5.81,2.12,1.86.86,2.64.36,3.32-1.53,4.55-12.74,9.2-25.43,13.82-38.14.18-.5.36-1,.46-1.3ZM291.94,136.43c-1.21-1.6-3.28-1.53-4.89-2.29-.67-.31-1.7-1.08-2.17.09-1.16,2.89-2.2,5.84-3.17,8.8-.4,1.21.84,1.38,1.54,1.52,1.76.35,3.95,2.66,5.09,1.01,1.76-2.55,2.39-5.87,3.6-9.13ZM260.06,200.32c-1.18-.15-1.43.42-1.65,1-.51,1.36-.94,2.75-1.51,4.08-.48,1.13-.1,1.69.97,2.08,2.51.9,5.01,1.84,7.52,2.76.9.33,1.6.31,1.96-.82.46-1.45,1.02-2.88,1.55-4.31.24-.64.25-1.32-.42-1.58-2.9-1.16-5.84-2.24-8.42-3.21Z"/>
    <path d="M201.13,71.54c27.87,0,55.74,0,83.62,0,4.59,0,5.68,1.07,5.69,5.66.02,6.13,0,12.25,0,18.38,0,.69,0,1.38-.11,2.06-.36,2.26-1.86,3.64-3.8,3.56-2.04-.08-3.54-1.64-3.57-4.02-.07-5.13-.03-10.26-.03-15.39q0-3.03-3.03-3.04c-44.79,0-89.59,0-134.38,0-7.66,0-15.31,0-22.97,0-2.99,0-3,0-3,3.08,0,44.41,0,88.82,0,133.23,0,1,.05,2-.05,2.98-.23,2.26-1.66,3.66-3.65,3.69-2,.03-3.48-1.35-3.76-3.58-.09-.68-.06-1.38-.06-2.06,0-46.33,0-92.65,0-138.98,0-4.55,1.03-5.58,5.49-5.58,27.87,0,55.74,0,83.62,0Z"/>
    <path d="M201.25,87.21c14.85,0,29.7,0,44.55,0,4.38,0,5.6,1.21,5.62,5.56.02,4.21.03,8.42,0,12.63-.04,3.65-1.4,5.02-5,5.02-30.16,0-60.32,0-90.47,0-3.54,0-4.85-1.32-4.87-4.86-.03-4.29-.01-8.57,0-12.86,0-4.32,1.15-5.49,5.41-5.49,14.93,0,29.85,0,44.78,0ZM201.12,102.91c12.71,0,25.43.01,38.14,0,5.26,0,4.59.51,4.63-4.7.02-3.47,0-3.47-3.56-3.47-25.58,0-51.16-.01-76.74,0-5.65,0-4.96-.67-4.99,5.04-.02,3.12,0,3.13,3.24,3.13,13.1,0,26.19,0,39.29,0Z"/>
    <path d="M201.27,149.47c-19.75,0-39.5,0-59.25,0-1.07,0-2.15.11-3.18-.29-1.59-.61-2.52-1.72-2.49-3.47.03-1.72.88-2.94,2.52-3.44.86-.26,1.81-.31,2.71-.31,39.73-.01,79.46-.01,119.19,0,.61,0,1.23,0,1.83.09,2.22.34,3.62,1.87,3.54,3.82-.08,1.95-1.58,3.39-3.79,3.59-.84.07-1.68.04-2.52.04-19.52,0-39.04,0-58.56,0Z"/>
    <path d="M208.32,125.33c17.23,0,34.46,0,51.69,0,.77,0,1.53-.03,2.3.02,2.24.15,3.74,1.54,3.83,3.51.09,1.85-1.2,3.35-3.33,3.74-.97.18-1.98.21-2.97.21-34.46.01-68.92.01-103.39,0-.99,0-2-.04-2.97-.22-2.06-.39-3.39-1.99-3.29-3.8.1-1.86,1.58-3.26,3.67-3.44.76-.06,1.53-.03,2.3-.03,17.38,0,34.77,0,52.15,0Z"/>
    <path d="M165.75,266.13c-1.24.4-1.71,1.14-2.29,1.72-6.46,6.43-12.89,12.88-19.34,19.32-.6.59-1.17,1.23-1.86,1.71-1.63,1.15-3.31,1.17-4.84-.18-1.39-1.23-1.46-3.35-.26-5.01.18-.25.38-.48.6-.7,8.23-8.23,16.45-16.47,24.71-24.68,1.82-1.81,4.01-2.54,6.52-1.66,2.6.91,3.86,2.9,4.1,5.57.14,1.51.18,3.03.27,4.74,1.35-.34,1.95-1.37,2.73-2.12,3.5-3.4,6.47-3.55,9.96-.25,1,.95,1.43.34,2.03-.25,2.34-2.32,4.66-4.65,6.99-6.98.49-.49.96-.99,1.47-1.46,1.92-1.76,4.24-1.91,5.72-.38,1.48,1.53,1.29,3.79-.53,5.72-1.26,1.33-2.59,2.61-3.89,3.91-2.38,2.38-4.72,4.81-7.17,7.13-2.95,2.79-6.11,2.89-8.96.1-1.23-1.21-1.85-.8-2.76.15-1.06,1.1-2.13,2.22-3.32,3.17-1.95,1.57-4.15,1.91-6.45.79-2.19-1.07-3.31-2.9-3.42-5.31-.07-1.6-.01-3.2-.01-5.05Z"/>
    <path d="M180.62,208.95c12.78,0,25.55,0,38.33,0,.84,0,1.71-.08,2.51.11,1.86.44,2.92,1.69,2.86,3.63-.06,1.82-1.12,2.98-2.88,3.38-.73.17-1.52.1-2.29.1-25.86,0-51.72,0-77.58,0-.76,0-1.55.06-2.29-.08-1.91-.37-2.94-1.59-2.93-3.54,0-1.95,1.04-3.17,2.96-3.51.82-.15,1.68-.08,2.52-.08,12.93,0,25.86,0,38.79,0Z"/>
    <path d="M180.79,291.95c-5.81,0-11.62.02-17.42,0-3.06-.01-4.81-1.39-4.82-3.71,0-2.23,1.88-3.78,4.83-3.79,11.62-.03,23.23-.03,34.85,0,3.28,0,5.3,1.97,4.7,4.46-.53,2.21-2.09,3.05-4.25,3.05-5.96-.01-11.92,0-17.88,0Z"/>
    <path d="M149.38,175.44c2.82,0,5.65-.04,8.47,0,2.59.04,4.18,1.37,4.32,3.49.14,2.02-1.45,3.84-3.94,3.89-6.02.14-12.06.14-18.08.01-2.51-.05-3.94-1.78-3.81-3.96.12-2.03,1.65-3.37,4.11-3.42,2.98-.06,5.95-.02,8.93-.02Z"/>
    <path d="M149.16,166.06c-2.91,0-5.82.04-8.72,0-2.54-.04-4.1-1.48-4.1-3.65,0-2.22,1.48-3.54,4.14-3.55,5.89-.03,11.78-.04,17.67,0,2.4.02,3.98,1.45,4.05,3.48.07,2.08-1.61,3.66-4.09,3.71-2.98.06-5.97.01-8.95.02Z"/>
  </g>
</svg>