<?xml version="1.0" encoding="UTF-8"?>
<svg id="Layer_1" xmlns="http://www.w3.org/2000/svg" viewBox="0 0 389 388">
  <defs>
    <style>
      .cls-1 {
        fill: none;
        stroke: #000;
        stroke-miterlimit: 10;
        stroke-width: 13px;
      }
    </style>
  </defs>
  <ellipse class="cls-1" cx="195" cy="194" rx="184" ry="185"/>
  <path d="M72,242c-3.34-8.61-8.73-25.16-9-46-.67-52.46,31.68-88.42,35-92,22.09-23.82,48.29-34.18,68.32-38.65l-4-14.69c-21.5,4.79-49.9,15.85-74.31,41.35-40.26,42.05-40.68,93.09-40.45,104.96.15,7.84,2.03,62.28,43.56,102.34.63.61,1.26,1.2,1.9,1.79,2.11-5.26,5.42-10.08,6.66-15.41-6.7-6.97-19.14-21.7-27.67-43.68Z"/>
  <path d="M105.3,311.12c12.15,8.79,23.27,13.91,27.7,15.88,6.38,2.84,21.84,9.2,43,12,12.65,1.67,38.41,4.78,68-6,12.8-4.66,22.57-10.56,29-15,1.48-3.07,1.07-6.65-1-9-2.59-2.94-7.37-3.51-11-1-8.13,5.16-21.39,12.25-39,16-32.05,6.83-57.91-1.8-70-6-5.9-2.05-15.5-5.48-26.45-11.94"/>
  <path d="M232.7,67.75c32.22,9.99,52.22,29.95,57.3,35.25,7.23,7.54,35.36,38.63,37,87,1.17,34.55-11.77,60.24-18,71-3.48,3.86-2.54,9.67,1,12,3.3,2.17,8.52,1.11,11-3,1.66-2.71,3.8-6.43,6-11,3.78-7.83,5.81-14.11,6.86-17.42,3.91-12.27,8.64-27.1,9.14-45.58.63-23.6-5.97-41.43-10-52-2.8-7.35-11.76-29.15-30-49-19.74-21.48-43.29-33.35-63.46-39.91"/>
  <g>
    <path d="M241.59,47c2.22,2.01,2.35,4.25,1.25,7-4.02,9.98-7.85,20.03-11.78,30.05-.59,1.5-.97,2.49,1.39,2.61,5.73.31,9.76,3.94,11,9.55,1.07,4.84-1.32,9.89-6.01,12.63-.43.25-.87.5-1.33.76.43,1.02,1.37,1.12,2.08,1.5,24,13.15,38.37,33.19,42.84,60.19,4.51,27.23,8.85,54.49,13.25,81.75,1.3,8.07,2.61,16.13,3.8,24.21.33,2.23,1.16,3.54,3.41,4.5,6.99,2.98,10.56,10.28,8.98,17.57-1.59,7.33-7.79,12.37-15.41,12.38-62.86.02-125.72.02-188.57,0-7.61,0-13.82-5.06-15.4-12.38-1.57-7.29,2-14.59,8.99-17.56,2.26-.96,3.05-2.28,3.41-4.5,4.4-27.6,8.85-55.19,13.32-82.78,1.7-10.52,2.72-21.19,5.45-31.51,6.11-23.11,19.91-40.3,40.91-51.72.75-.41,1.49-.81,2.23-1.21-.12-.99-.97-.99-1.5-1.31-4.58-2.82-6.87-7.9-5.71-12.78,1.29-5.43,5.33-8.99,10.95-9.29,2.36-.13,1.97-1.13,1.38-2.62-3.93-10.01-7.76-20.07-11.78-30.05-1.11-2.75-.97-4.98,1.25-6.99h6.72c2.72.79,5.29,1.92,7.81,3.21,3.05,1.56,6.28,2.06,9.71,1.39,4.26-.84,7.69-3.75,11.93-4.6h9.3c2.72.79,5.29,1.92,7.81,3.21,3.05,1.56,6.28,2.06,9.71,1.39,4.26-.84,7.69-3.75,11.93-4.6h6.72ZM200.75,303.6c30.48,0,60.96,0,91.44,0,1.03,0,2.08.05,3.1-.08,4.19-.5,7.01-3.38,7.13-7.19.12-3.99-2.26-6.81-6.53-7.7-4.07-.85-4.61-1.39-5.27-5.44-1.41-8.66-2.8-17.32-4.19-25.98-4.65-28.86-9.09-57.76-14.01-86.58-6.7-39.23-42.9-65.24-82.29-59.49-29.67,4.33-53.14,25.7-60.08,54.9-2.21,9.29-3.27,18.8-4.8,28.22-3.56,21.9-7.07,43.81-10.61,65.71-1.32,8.15-2.67,16.29-3.99,24.44-.39,2.44-1.64,3.9-4.2,4.09-.68.05-1.36.24-2.01.44-3.25.96-5.32,3.75-5.32,7.1,0,3.35,2.1,6.11,5.34,7.1,1.51.46,3.05.46,4.6.46,30.57,0,61.14,0,91.7,0ZM232.7,56.86c-1.13.48-1.6.65-2.06.87-7.15,3.39-14.35,3.51-21.33-.25-5.84-3.14-11.41-3.24-17.14.08-3.19,1.85-6.69,2.5-10.4,2.58-4.4.1-8.44-1.02-12.55-3.22.1.75.08,1.09.19,1.38,3.45,8.9,6.94,17.79,10.36,26.7.55,1.42,1.53,1.61,2.84,1.61,12.13-.03,24.27-.04,36.4.01,1.53,0,2.34-.52,2.88-1.95,1.75-4.67,3.62-9.3,5.43-13.95,1.71-4.4,3.41-8.8,5.37-13.87ZM200.51,102.1c7.05,0,14.11,0,21.16,0,3.27,0,6.54.08,9.8-.07,2.42-.12,3.86-1.68,3.75-3.74-.13-2.33-1.66-3.24-3.74-3.52-.59-.08-1.2-.05-1.8-.05-19.27,0-38.54,0-57.8,0-.94,0-1.91.03-2.81.25-1.66.42-2.69,1.5-2.74,3.3-.06,1.91.96,3.11,2.74,3.56.98.25,2.04.26,3.06.26,9.46.02,18.92.01,28.39.01Z"/>
    <path d="M177.34,206.38c0-2.41-.04-4.82.01-7.23.07-3.16,1.43-4.51,4.63-4.55,4.3-.05,8.61-.02,12.92-.02,1.12,0,2.23-.04,3.3-.47,1.47-.6,2.17-1.76,2.17-3.22,0-1.46-.7-2.62-2.16-3.22-1.16-.48-2.35-.47-3.56-.47-4.13,0-8.27.02-12.4-.01-3.62-.03-4.91-1.39-4.9-5.07.03-9.29,6.73-18.16,16.06-21.29,9.37-3.14,19.98.1,25.92,7.91,1.79,2.35,3.32,4.88,3.92,7.78.45,2.15,1.57,2.65,3.61,2.6,4.7-.11,4.7-.02,3.33-4.57-5.62-18.77-26.43-27.55-43.84-18.51-.61.32-1.2.67-1.82.97-2.45,1.18-4.7.65-5.87-1.35-1.25-2.15-.57-4.38,1.92-5.89,4.47-2.71,9.28-4.58,14.47-5.23,22.12-2.78,40.89,11.18,44.32,33.29,1.25,8.08.35,9.76-7.78,9.38-3.44-.16-6.89-.01-10.33-.03-3.71-.02-4.71-.9-5.25-4.54-1.19-7.96-5.07-12.67-11.79-14.3-6.67-1.62-14.01,1.77-16.98,7.84-1.17,2.38-.9,2.86,1.68,2.88,2.76.03,5.51-.03,8.27.02,6.56.11,11.5,5.17,11.51,11.75,0,6.6-4.91,11.71-11.43,11.83-3.19.06-6.37.08-9.56,0-1.66-.04-2.3.56-2.28,2.25.09,6.14-.49,5.06,5.02,5.15,2.32.04,4.65-.03,6.97.02,6.35.15,11.25,5.27,11.27,11.73.01,6.5-4.83,11.68-11.16,11.84-3.18.08-6.37.07-9.56,0-1.72-.03-2.07.54-1.52,2.16,2.16,6.35,8.58,10.41,15.86,9.92,6.26-.42,12.07-5.65,13.26-11.94q1.37-7.21,8.66-7.21c3.53,0,7.06-.03,10.59.01,3.5.04,4.81,1.37,4.86,4.86.25,18.37-14.93,35.54-33.47,37.83-22.03,2.73-40.91-11.69-44.18-33.85-.26-1.76-.96-2.65-2.41-3.54-7.47-4.62-7.5-15.45,0-20.04,1.73-1.06,2.47-2.17,2.23-4.11-.1-.85-.09-1.73,0-2.58.2-1.98-.4-3.21-2.27-4.35-7.38-4.51-7.45-15.33-.1-19.85,1.88-1.15,2.56-2.51,2.87-4.46.76-4.81,2.41-9.33,4.99-13.47,1.61-2.58,3.93-3.28,6.09-1.93,2,1.25,2.53,3.64,1.03,6.12-2.88,4.78-4.13,9.99-4.47,15.47-.16,2.63-1.35,4.13-4,4.53-2.07.31-3.67,1.39-3.61,3.67.06,2.23,1.66,3.19,3.72,3.64,3,.65,3.82,1.71,3.84,4.85.03,4.65.03,9.3,0,13.95-.02,3.13-.85,4.18-3.85,4.84-2.03.45-3.71,1.35-3.72,3.62,0,2.22,1.54,3.26,3.62,3.72,3.17.71,3.82,1.61,3.96,5.02.64,15.99,10.83,27.75,26.42,30.48,15.37,2.69,32.02-9.06,34.51-24.3.25-1.56-.24-2.09-1.7-2.02-.52.02-1.04.07-1.55-.01-2.67-.44-3.82.62-4.65,3.31-3.44,11.14-14.73,17.76-26.34,15.79-11.25-1.91-19.51-11.94-19.3-23.43.06-3.46,1.37-4.77,4.92-4.79,4.39-.03,8.78-.02,13.17-.01,1.5,0,2.98-.18,4.03-1.36.92-1.02,1.17-2.26.65-3.61-.66-1.7-2.09-2.3-3.68-2.35-3.53-.11-7.06-.05-10.59-.07-1.38,0-2.76.03-4.13-.02-2.88-.11-4.22-1.45-4.37-4.31,0-.17,0-.34,0-.52,0-2.32,0-4.65,0-6.97Z"/>
  </g>
</svg>