<?xml version="1.0" encoding="UTF-8"?>
<svg id="Layer_1" xmlns="http://www.w3.org/2000/svg" viewBox="0 0 389 388">
  <defs>
    <style>
      .cls-1 {
        fill: none;
        stroke: #000;
        stroke-miterlimit: 10;
        stroke-width: 13px;
      }
    </style>
  </defs>
  <ellipse class="cls-1" cx="195" cy="194" rx="184" ry="185"/>
  <g>
    <path d="M51,164c.89-.18,1.7-.44,2.47-.74-.78-.17-1.6-.26-2.47-.26.87,0,1.69.09,2.47.26,3.58-1.38,6.06-3.97,8.53-7.26,1-.15,2.24-.43,3.59-1,2.71-1.15,4.46-2.89,5.41-4,3.65-11.36,11.17-29.61,27-47,38.5-42.28,92.2-42.13,99-42,53.13,1.02,86.24,33.96,93,41,4.07,4.24,14.73,15.91,23.58,33.91,5.63-.89,10.44-.91,16.1-.91-4.56-10.17-13.01-26.13-26.68-41-43.33-47.15-105.02-48-109-48-10.03,0-63.93,1.06-106,45-40.26,42.05-40.68,93.09-40.45,104.96.15,7.84,2.03,62.28,43.56,102.34,16.78,16.19,35.75,24.96,41.89,27.69,6.38,2.84,21.84,9.2,43,12,12.65,1.67,38.41,4.78,68-6,12.8-4.66,22.57-10.56,29-15,1.48-3.07,1.07-6.65-1-9-2.59-2.94-7.37-3.51-11-1-8.13,5.16-21.39,12.25-39,16-32.05,6.83-57.91-1.8-70-6-9.76-3.39-29.68-10.56-49-29-4.74-4.52-20.71-20.5-31-47-3.34-8.61-8.73-25.16-9-46-.08-5.89.29-11.55.96-17-2.58-2.46-5.24-4.47-8.5-5.77-1.62-.64-3.14-1.01-4.47-1.23"/>
    <path d="M64.16,177.32c-4.62-3.77-8.5-7.43-14.16-9.32,5.66,1.89,9.55,5.55,14.16,9.32"/>
    <path d="M51,172c5.48.91,9.29,3.51,12.96,7,.07-.56.12-1.13.2-1.68"/>
    <path d="M309,261c-3.48,3.86-2.54,9.67,1,12,3.3,2.17,8.52,1.11,11-3,1.66-2.71,3.8-6.43,6-11,3.78-7.83,5.81-14.11,6.86-17.42,3.91-12.27,8.64-27.1,9.14-45.58h-15.94c-.39,31.52-12.19,54.88-18.06,65Z"/>
    <circle cx="293" cy="292" r="8"/>
  </g>
  <path d="M350,196.63c-1.25,1.82-3.31,2.43-5.75,2.48-.9.02-1.8.01-2.7.01-63.3,0-126.59,0-189.89,0-1.79,0-3.6.12-5.34-.39-2-.59-3.1-1.74-3.15-3.42-.05-1.79,1.04-3.02,3.17-3.64,1.64-.48,3.35-.39,5.04-.39,61.3,0,122.6,0,183.9,0,1,0,2-.04,2.99,0,1.73.07,2.54-.45,2.53-1.93-.04-15.88-.04-31.76,0-47.64,0-1.46-.74-2.03-2.5-1.96-1,.04-2,0-2.99,0-73.08,0-146.16,0-219.24,0-1.3,0-2.61.05-3.89-.06-3.4-.3-4.96-1.65-5.01-4.42-.07-3.71-.02-7.43-.02-11.21-1.36.2-1.82.87-2.43,1.36-15.97,12.74-31.91,25.51-47.88,38.24-1.38,1.1-2.42,1.85-.44,3.42,16.38,12.97,32.66,26.04,48.97,39.07.4.32.71.79,1.77.73,0-3.46-.02-6.94,0-10.41.03-3.71,1.66-5.1,6.25-5.16,5.09-.06,10.18-.07,15.27.01,3.55.06,5.54,1.37,5.78,3.55.26,2.32-1.76,4.04-5.23,4.2-3.19.14-6.39.14-9.58.04-2.31-.08-3.18.55-3.13,2.46.13,4.79.02,9.58.05,14.36.01,1.9-.57,3.49-2.94,4.31-2.41.83-4.26-.05-5.9-1.36-20.83-16.64-41.67-33.28-62.47-49.95-3.03-2.43-3.03-4.42,0-6.84,20.8-16.67,41.64-33.3,62.47-49.95,1.64-1.31,3.46-2.22,5.88-1.37,2.35.82,2.97,2.4,2.96,4.3-.03,4.87.05,9.74-.04,14.6-.03,1.66.72,2.36,2.79,2.23.99-.06,2,0,2.99,0,73.28,0,146.56,0,219.84,0,3.04,0,6.08-.05,7.84,2.49v62.25Z"/>
  <path d="M195.82,250.77c0,15.08,0,30.16,0,45.23,0,.96.06,1.94-.13,2.86-.4,1.99-1.77,3.06-3.75,3.01-1.86-.05-3.13-1.14-3.52-3.02-.14-.69-.12-1.43-.12-2.15,0-21.39,0-42.78,0-64.16,0-.64-.03-1.28.07-1.91.24-1.66,1.2-2.76,2.82-3.21,1.68-.46,2.99.24,3.97,1.54.47.62.77,1.39,1.08,2.12,6.55,15.25,13.08,30.5,19.62,45.75.25.58.5,1.16,1.17,1.72,0-.74,0-1.48,0-2.22,0-14.44,0-28.89,0-43.33,0-.88-.05-1.77.12-2.62.38-1.88,1.66-2.96,3.52-3.01,1.97-.05,3.33,1.04,3.75,3.02.16.77.12,1.59.12,2.38,0,21.23,0,42.46,0,63.69,0,.56,0,1.12-.02,1.68-.11,2-1.16,3.33-3.1,3.73-1.89.39-3.25-.58-4.12-2.19-.57-1.05-1-2.17-1.47-3.27-6.37-14.89-12.74-29.78-19.12-44.66-.15-.36-.33-.71-.5-1.06-.14.03-.27.05-.41.08Z"/>
  <path d="M231.4,264.63c0-10.69,0-21.38,0-32.07,0-4,1.3-5.4,5.27-5.35,5.18.06,10.37-.41,15.53.35,8.74,1.28,15.35,8.63,15.42,17.44.09,12.68.06,25.37.03,38.05-.02,10.96-7.57,18.71-18.52,19-4.23.11-8.46.07-12.68,0-3.7-.05-5.03-1.43-5.04-5.11-.02-10.77,0-21.54,0-32.31ZM238.92,264.69c0,8.77,0,17.54,0,26.3q0,3.22,3.34,3.23c2.07,0,4.14.01,6.22,0,7.12-.05,11.49-4,11.59-11.12.18-12.35.2-24.71-.01-37.06-.12-7.02-4.49-10.95-11.47-11-2.15-.02-4.3,0-6.46,0q-3.2,0-3.21,3.11c0,8.85,0,17.69,0,26.54Z"/>
  <path d="M145.2,264.41c0-10.61,0-21.22,0-31.83,0-4.01,1.29-5.37,5.25-5.39,8.62-.04,17.23,0,25.85-.02,1.05,0,2.08.12,3.03.58,1.34.65,2.04,1.77,2.07,3.25.03,1.58-.67,2.77-2.11,3.46-1.1.53-2.3.57-3.51.57-6.86,0-13.72.04-20.58-.03-1.83-.02-2.54.53-2.51,2.45.09,6.94.09,13.88,0,20.82-.03,1.92.66,2.5,2.51,2.46,4.47-.09,8.93-.02,13.4-.03,1.12,0,2.24.03,3.29.47,1.57.65,2.36,1.87,2.33,3.55-.03,1.58-.81,2.72-2.28,3.35-1.05.44-2.16.49-3.29.49-4.39-.01-8.78.08-13.16-.04-2-.05-2.85.45-2.81,2.65.13,6.86.1,13.72.01,20.58-.02,1.86.57,2.53,2.46,2.5,6.62-.08,13.24-.03,19.86-.03.8,0,1.6-.03,2.39.06,2.54.29,4.03,1.77,4.01,3.91-.03,2.17-1.5,3.77-4.1,3.79-9.33.1-18.67.12-28,0-2.9-.04-4.09-1.65-4.1-4.78-.02-10.93,0-21.86,0-32.79Z"/>
</svg>