<?xml version="1.0" encoding="UTF-8"?>
<svg id="Layer_1" xmlns="http://www.w3.org/2000/svg" viewBox="0 0 389 388">
  <defs>
    <style>
      .cls-1 {
        fill: none;
        stroke: #000;
        stroke-miterlimit: 10;
        stroke-width: 13px;
      }
    </style>
  </defs>
  <ellipse class="cls-1" cx="195" cy="194" rx="184" ry="185"/>
  <g>
    <path d="M82.53,98.04c-34.83,40.76-35.21,87.61-34.98,98.92.15,7.84,2.03,62.28,43.56,102.34,16.78,16.19,35.75,24.96,41.89,27.69,6.38,2.84,21.84,9.2,43,12,12.65,1.67,38.41,4.78,68-6,12.8-4.66,22.57-10.56,29-15,1.48-3.07,1.07-6.65-1-9-2.59-2.94-7.37-3.51-11-1-8.13,5.16-21.39,12.25-39,16-32.05,6.83-57.91-1.8-70-6-9.76-3.39-29.68-10.56-49-29-4.74-4.52-20.71-20.5-31-47-3.34-8.61-8.73-25.16-9-46-.44-34.53,13.42-61.91,23.9-77.62"/>
    <path d="M88,92c-1.91,2-3.73,4.01-5.47,6.04"/>
    <path d="M163,66c-.67-3.67-1.33-7.33-2-11,12,2.33,24,4.67,36,7,6.62-3.17,16.97-7.11,30-8,42.62-2.92,71.18,29.67,74,33,4.97,5.86,16.09,18.98,19,38,1.53,9.99-.37,14.04.57,28.98,1.12,17.89,4.87,28.6,6.43,36.02,3.07,14.62,1.99,37.18-18,71-3.48,3.86-2.54,9.67,1,12,3.3,2.17,8.52,1.11,11-3,1.66-2.71,3.8-6.43,6-11,3.78-7.83,5.81-14.11,6.86-17.42,3.91-12.27,8.64-27.1,9.14-45.58.63-23.6-5.97-41.43-10-52-2.66-6.99-5.35-12.28-8.32-18.2-3.71-7.39-11.77-23.45-20.68-34.8-13.33-16.97-37.91-35.31-69-38-15.67-1.36-29.12,1.6-39,5-15.71-1.24-31.41-2.48-47.12-3.72"/>
    <circle cx="293" cy="292" r="8"/>
  </g>
  <g>
    <path d="M159.53,326c-7.95-1.91-15.06-5.31-20.68-11.46-3.02-3.3-5.38-6.98-7.11-11.08-1.26-2.98-.57-5.44,1.73-6.51,2.49-1.15,4.85-.05,6.21,3.04,3.89,8.8,10.34,14.59,19.77,16.85,16.05,3.85,32.32-7.59,34.03-23.92.94-8.98.26-17.99.41-26.98.1-6.21.33-12.44-.06-18.63-.5-8.02,6.37-12.35,13.27-10.72,20.17,4.75,40,3.29,58.76-5.71,28.95-13.89,46.65-36.76,51.8-68.59,6.59-40.71-15.39-77.95-49.52-95.08-10.73-5.39-22.14-8.38-34.18-9.13-13.9-.86-27.26,1.25-40.11,6.55-4.22,1.74-8.03,1.38-11.67-1.41-4.74-3.63-10.26-5.07-16.12-5.48-.45-.03-.9-.02-1.35.04-.24.03-.46.2-.99.45,1.84,1.53,3.57,2.9,5.23,4.35,7.94,6.94,13.42,15.46,16.29,25.6,2.8,9.88-1.47,19.19-10.77,23.52-4.4,2.05-8.9,3.92-13.38,5.78-3.11,1.29-5.57.48-6.61-2.01-1.03-2.44.19-4.67,3.37-6.05,3.96-1.72,7.94-3.4,11.92-5.1,6.51-2.78,8.87-7.81,6.87-14.66-4.99-17.11-21.11-29.9-39.28-31.6-24.67-2.31-44.67,15.52-48.8,36.39-3.95,19.98,6.33,41.01,24.64,49.74,7.16,3.42,14.77-.72,15.44-8.64.57-6.79,2.64-12.65,8.43-16.73.51-.36,1.05-.7,1.6-1.01,3.3-1.88,5.91-1.61,7.36.76,1.48,2.41.53,4.67-2.88,6.69-3.85,2.28-5.59,5.75-5.6,10.11-.03,11.34-.02,22.69-.02,34.03,0,36.55-.02,73.1-.03,109.66,0,1.17.09,2.37-.14,3.5-.45,2.27-1.83,3.72-4.28,3.72-2.3,0-3.71-1.32-4.18-3.49-.26-1.21-.24-2.5-.24-3.76-.01-41.14,0-82.29,0-123.43,0-.81-.02-1.62,0-2.43.02-1.27-.28-1.95-1.72-1.2-7.25,3.73-14.1,2.39-20.74-1.65-15.62-9.5-24.63-23.26-26.84-41.47-3.32-27.29,16.54-55.79,47.96-59.43,7.18-.83,14.39-.31,21.36,1.94,1.29.42,2.5.63,3.91.11,11.69-4.24,22.85-2.92,33.27,3.77,2.25,1.44,4.02,1.5,6.48.63,38.49-13.55,73.25-7.08,103.56,20.36,18.12,16.41,28.47,37.25,31.04,61.54,2.99,28.36-4.92,53.66-23.45,75.37-15.48,18.13-35.17,29.18-58.66,33.3-12.82,2.25-25.62,1.85-38.33-.97-3.75-.83-4.1-.58-4.1,3.2,0,13.41.01,26.83,0,40.24-.02,18.39-11.68,32.77-29.7,36.68-.44.09-.86.25-1.29.38h-11.89Z"/>
    <path d="M193.92,148.34c.02-16.46,12.1-30.99,28-33.66,17.02-2.86,33.06,6.42,38.64,22.34,1.16,3.3.28,5.79-2.37,6.71-2.45.85-4.55-.5-5.83-3.76-4.61-11.68-14.69-17.95-27.19-16.93-10.33.85-19.94,9.58-22.1,20.09-2.69,13.09,4.86,25.89,17.63,29.86,12.49,3.88,25.97-2.48,31.17-14.72.32-.74.57-1.52.9-2.25,1.17-2.57,3.37-3.59,5.65-2.65,2.28.95,3.27,3.21,2.35,5.82-4.03,11.52-11.83,19.23-23.65,22.43-21.97,5.94-43.23-10.52-43.21-33.27Z"/>
    <path d="M118.94,94.96c-7.31,0-13.01-5.63-13.06-12.91-.05-7.32,5.83-13.3,13.08-13.31,7.05-.01,13.1,6,13.15,13.06.05,7.35-5.76,13.15-13.17,13.16ZM123.23,82c.02-2.6-1.79-4.42-4.34-4.38-2.47.04-4.17,1.77-4.18,4.26-.01,2.57,1.88,4.53,4.32,4.49,2.24-.04,4.19-2.06,4.21-4.37Z"/>
    <path d="M99.42,115.12c-.03-7.21,6.1-13.36,13.21-13.27,7.16.09,13.01,5.99,13.03,13.15.02,7.26-6.01,13.33-13.18,13.27-7.09-.06-13.03-6.05-13.06-13.15ZM116.81,115.01c-.02-2.47-1.78-4.32-4.17-4.36-2.48-.04-4.38,1.91-4.35,4.46.03,2.5,1.75,4.29,4.17,4.33,2.53.05,4.36-1.83,4.34-4.43Z"/>
    <path d="M151.05,74.06c7.32-.02,13.3,5.85,13.3,13.08,0,6.99-6.07,13.07-13.12,13.13-7.12.06-13.39-6.17-13.31-13.22.09-7.16,5.96-12.97,13.12-12.99ZM155.55,86.98c-.03-2.34-2.24-4.46-4.55-4.36-2.25.09-4.24,2.14-4.26,4.38-.02,2.46,1.94,4.41,4.4,4.41,2.47,0,4.43-1.97,4.4-4.42Z"/>
  </g>
</svg>