<?xml version="1.0" encoding="UTF-8"?>
<svg id="Layer_1" xmlns="http://www.w3.org/2000/svg" viewBox="0 0 389 388">
  <defs>
    <style>
      .cls-1 {
        fill: none;
        stroke: #000;
        stroke-miterlimit: 10;
        stroke-width: 13px;
      }
    </style>
  </defs>
  <ellipse class="cls-1" cx="195" cy="194" rx="184" ry="185"/>
  <g>
    <path d="M193,54c-.32,0-.68,0-1.09,0"/>
    <path d="M229,74c12.25,3.52,37.55,12.62,60,36,7.09,7.39,35.36,38.55,37,87,1.17,34.55-11.77,60.24-18,71-3.48,3.86-2.54,9.67,1,12,3.3,2.17,8.52,1.11,11-3,1.66-2.71,3.8-6.43,6-11,3.78-7.83,5.81-14.11,6.86-17.42,3.91-12.27,8.64-27.1,9.14-45.58.63-23.6-5.97-41.43-10-52-10.23-26.83-25.32-43.93-30-49-32.31-35-73.69-43.6-89-46"/>
    <path d="M166.91,72l.84-.1s.03-.06.04-.08c-.3.06-.59.12-.89.18Z"/>
    <path d="M167.2,71.55l.32-.49c-.44.3-.84.64-1.15,1.06.18-.04.36-.08.53-.12l.3-.45"/>
    <path d="M178.12,54.86c-6.61,2.96-9.61,6.42-11.12,9.14-.72,1.3-1.71,3.53-4,6-1.82,1.96-3.68,3.22-5,4-2.38.87-5.87,2.2-10,4-7.2,3.13-32.14,13.97-51,33-35.02,35.33-35.09,84.73-35,92,.27,20.84,5.66,37.39,9,46,10.29,26.5,26.26,42.48,31,47,19.32,18.44,39.24,25.61,49,29,12.09,4.2,37.95,12.83,70,6,17.61-3.75,30.87-10.84,39-16,3.63-2.51,8.41-1.94,11,1,2.07,2.35,2.48,5.93,1,9-6.43,4.44-16.2,10.34-29,15-29.59,10.78-55.35,7.67-68,6-21.16-2.8-36.62-9.16-43-12-6.13-2.73-25.11-11.51-41.89-27.69-41.25-39.79-43.44-96.06-43.56-102.34-.23-12.05.26-63.1,40.45-104.96,35.56-37.04,79.19-42.93,91.12-44.14Z"/>
    <circle cx="292" cy="299" r="8"/>
  </g>
  <g>
    <path d="M141.61,304c-2-1.64-2.61-3.82-2.59-6.33.05-6.19.05-12.38,0-18.56-.03-3.97,1.77-6.11,5.46-6.53,5.55-.63,8.26-4.2,8.27-10.04.03-18.73.01-37.47.01-56.2,0-1.44-.01-2.88.4-4.29.63-2.16,2.18-3.3,4.31-3.26,2.02.04,3.57,1.16,4.06,3.23.29,1.22.41,2.51.41,3.77.03,18.48.02,36.96.02,55.44,0,8.96-3.44,15.78-12.09,19.3-1.1.45-1.62,1.11-1.62,2.27.01,3.48.02,6.95,0,10.43,0,1.37.58,2.06,1.98,2,.51-.02,1.02,0,1.53,0,28.48,0,56.96,0,85.44,0,3.57,0,3.57,0,3.58-3.46,0-2.88-.03-5.76,0-8.65.02-1.35-.49-2.14-1.8-2.68-8.19-3.37-11.87-9.81-11.89-18.38-.07-28.48-.07-56.96,0-85.44.02-8.69,3.8-15.14,12.07-18.54,1.09-.45,1.61-1.13,1.61-2.29-.01-3.48-.02-6.95,0-10.43,0-1.37-.57-2.06-1.98-2-.59.03-1.19,0-1.78,0-28.31,0-56.62,0-84.94,0q-3.84,0-3.84,3.96c0,2.71.02,5.43,0,8.14,0,1.19.28,2.08,1.55,2.6,7.58,3.11,11.61,8.82,12.04,16.97.22,4.05.49,8.14-.24,12.17-.39,2.16-1.84,3.42-4.08,3.48-2.36.06-3.83-1.19-4.39-3.44-.24-.97-.32-2.01-.34-3.02-.05-2.88.02-5.76-.04-8.65-.11-5.37-2.76-8.48-8.02-9.51-4.6-.9-5.67-2.15-5.69-6.81-.03-6.19-.04-12.38,0-18.56.03-4.69,1.64-6.27,6.27-6.27,32.8,0,65.61,0,98.41,0,4.62,0,6.23,1.59,6.26,6.28.04,6.27.04,12.55,0,18.82-.03,4.36-1.18,5.68-5.44,6.5-5.59,1.08-8.26,4.14-8.26,9.82-.03,28.99-.03,57.98,0,86.97,0,5.74,2.87,8.96,8.5,9.91,3.84.65,5.14,2.01,5.18,5.88.07,6.61,0,13.22.03,19.83,0,2.28-.89,4.09-2.58,5.56h-105.82Z"/>
    <path d="M194.43,43.36c21.26-.39,41.75,16.73,41.68,41.64-.07,24.44-19.71,41.55-41.64,41.51-22.13-.03-41.56-17.38-41.55-41.6.01-25.01,20.56-41.87,41.51-41.55ZM161.99,84.83c-.02,18.11,14.55,32.79,32.53,32.78,17.9-.01,32.43-14.55,32.52-32.54.09-18.19-14.3-32.74-32.41-32.77-18.18-.03-32.62,14.36-32.65,32.53Z"/>
  </g>
</svg>