<?xml version="1.0" encoding="UTF-8"?>
<svg id="Layer_1" xmlns="http://www.w3.org/2000/svg" viewBox="0 0 389 388">
  <defs>
    <style>
      .cls-1 {
        fill: none;
        stroke: #000;
        stroke-miterlimit: 10;
        stroke-width: 13px;
      }
    </style>
  </defs>
  <ellipse class="cls-1" cx="195" cy="194" rx="184" ry="185"/>
  <g>
    <path d="M261,308c-8.13,5.16-21.39,12.25-39,16-32.05,6.83-57.91-1.8-70-6-9.76-3.39-29.68-10.56-49-29-4.74-4.52-20.71-20.5-31-47-3.34-8.61-8.73-25.16-9-46-.67-52.46,31.68-88.42,35-92,39.21-42.27,91.32-42.15,99-42,53.13,1.02,86.24,33.96,93,41,7.23,7.54,35.36,38.63,37,87,1.17,34.55-11.77,60.24-18,71-3.48,3.86-2.54,9.67,1,12,3.3,2.17,8.52,1.11,11-3,1.66-2.71,3.8-6.43,6-11,3.78-7.83,5.81-14.11,6.86-17.42,3.91-12.27,8.64-27.1,9.14-45.58.63-23.6-5.97-41.43-10-52-2.8-7.35-11.76-29.15-30-49-43.33-47.15-105.02-48-109-48-10.03,0-63.93,1.06-106,45-40.26,42.05-40.68,93.09-40.45,104.96.15,7.84,2.03,62.28,43.56,102.34,16.78,16.19,35.75,24.96,41.89,27.69,6.38,2.84,21.84,9.2,43,12,12.65,1.67,38.41,4.78,68-6,12.8-4.66,22.57-10.56,29-15,1.48-3.07,1.07-6.65-1-9-2.59-2.94-7.37-3.51-11-1Z"/>
    <circle cx="293" cy="292" r="8"/>
  </g>
  <path d="M99,132.48c.61-.7,1.18-1.44,1.84-2.1,10.09-10.11,20.19-20.21,30.3-30.31,2.74-2.74,3.89-2.74,6.65.02,18.31,18.31,36.63,36.63,54.94,54.94q1.68,1.68,3.41-.04c18.23-18.23,36.45-36.45,54.68-54.68,3.1-3.1,4.02-3.09,7.17.06,9.88,9.88,19.76,19.76,29.64,29.64,3.14,3.14,3.15,4.09.06,7.18-18.27,18.27-36.53,36.55-54.84,54.78-1.24,1.24-1.34,1.91-.04,3.2,18.36,18.27,36.66,36.6,54.97,54.91,2.94,2.94,2.95,3.98.02,6.91-10.01,10.01-20.02,20.03-30.05,30.03-.7.7-1.48,1.31-2.23,1.97h-2.61c-.79-.79-1.57-1.59-2.36-2.38-18.21-18.22-36.43-36.43-54.63-54.65-.91-.91-1.5-1.58-2.79-.28-19.05,19.14-38.15,38.22-57.24,57.31h-2.61c-.7-.61-1.44-1.18-2.09-1.83-10.13-10.11-20.25-20.23-30.36-30.36-.65-.65-1.22-1.39-1.83-2.09,0-.87,0-1.74,0-2.61,8.52-8.52,17.04-17.03,25.56-25.55,2.29-2.29,3.91-2.59,5.39-1.01,1.37,1.46,1.01,3.05-1.2,5.27-7.11,7.12-14.21,14.25-21.37,21.32-1.1,1.08-1.13,1.71-.01,2.81,8.56,8.48,17.09,16.99,25.55,25.57,1.25,1.26,1.91,1.13,3.08-.04,18.28-18.35,36.6-36.65,54.91-54.97,2.94-2.94,4.02-2.95,6.92-.05,18.27,18.27,36.54,36.54,54.8,54.81q1.72,1.72,3.42.01c8.39-8.39,16.75-16.8,25.19-25.13,1.31-1.29,1.2-1.98-.04-3.22-18.22-18.14-36.39-36.33-54.57-54.51-.48-.48-.99-.95-1.44-1.46-1.42-1.62-1.44-3.04-.05-4.65.44-.52.95-.98,1.43-1.46,18.18-18.18,36.35-36.37,54.58-54.51,1.33-1.32,1.39-2.01.02-3.36-8.5-8.36-16.93-16.8-25.3-25.29-1.25-1.27-1.91-1.13-3.08.05-18.28,18.35-36.6,36.65-54.91,54.97-2.94,2.94-4.02,2.95-6.92.05-18.27-18.27-36.54-36.54-54.8-54.81q-1.72-1.72-3.42-.01c-8.39,8.39-16.75,16.8-25.19,25.13-1.31,1.29-1.2,1.98.04,3.22,18,17.92,35.95,35.89,53.92,53.85.44.44.88.88,1.32,1.32,2.48,2.5,2.5,3.8.05,6.26-3.64,3.65-7.29,7.29-10.93,10.94-4.3,4.3-8.61,8.61-12.92,12.9-.53.52-1.07,1.05-1.68,1.46-1.32.87-2.64.73-3.71-.4-1.08-1.13-1.14-2.45-.24-3.74.39-.55.9-1.02,1.38-1.51,7.16-7.16,14.3-14.33,21.49-21.46.93-.93,1.13-1.49.09-2.53-19.14-19.07-38.24-38.18-57.35-57.29,0-.87,0-1.74,0-2.61Z"/>
</svg>