<?xml version="1.0" encoding="UTF-8"?>
<svg id="Layer_1" xmlns="http://www.w3.org/2000/svg" viewBox="0 0 389 388">
  <defs>
    <style>
      .cls-1 {
        fill: none;
        stroke: #000;
        stroke-miterlimit: 10;
        stroke-width: 13px;
      }
    </style>
  </defs>
  <g>
    <path d="M83.03,191.81c.83-.96,1.59-1.98,2.48-2.87,11.89-11.92,23.8-23.82,35.71-35.72,3.79-3.78,5.6-3.79,9.34-.06,4.08,4.06,8.13,8.14,12.21,12.19,1.48,1.47,2.34,3.14,1.75,5.25-.87,3.15-4.72,4-7.38,1.5-3.27-3.07-6.44-6.24-9.52-9.5-1.32-1.4-2.11-1.33-3.43.01-9.7,9.8-19.45,19.56-29.26,29.25-1.41,1.4-1.2,2.13.09,3.42,22.71,22.64,45.36,45.33,68.05,67.98,8.59,8.58,19.07,10.19,29.16,4.59,2.39-1.32,4.36-3.19,6.27-5.11,30.39-30.39,60.78-60.78,91.17-91.17.78-.78,1.53-1.59,2.41-2.25,1.93-1.46,4.19-1.32,5.76.25,1.56,1.56,1.7,3.83.29,5.78-.49.68-1.1,1.28-1.7,1.88-30.87,30.87-61.72,61.76-92.62,92.6-13.53,13.5-32.92,13.6-46.46.13-24.05-23.93-48-47.96-71.98-71.96-.83-.83-1.59-1.75-2.37-2.63,0-1.18,0-2.37,0-3.55Z"/>
    <path d="M343,130.37c-.9,1.01-1.75,2.06-2.71,3.02-9.62,9.64-19.26,19.27-28.89,28.9-.66.66-1.31,1.34-2.05,1.89-2.02,1.51-4.43,1.36-5.98-.3-1.49-1.61-1.55-3.87-.07-5.79.56-.73,1.25-1.37,1.91-2.03,8.37-8.38,16.75-16.75,25.12-25.13q2.35-2.35.09-4.61c-9.39-9.39-18.83-18.74-28.14-28.22-1.69-1.72-2.57-1.81-4.34-.04-35.78,35.89-71.63,71.71-107.45,107.56-2.26,2.26-4.66,4.18-7.95,4.61-4.21.56-7.87-.56-10.9-3.58-7.3-7.3-14.62-14.58-21.89-21.9-2.33-2.34-2.5-5.14-.6-6.93,2.02-1.9,4.4-1.65,6.92.86,6.78,6.74,13.53,13.51,20.29,20.27,3.58,3.58,4.78,3.59,8.32.04,36.67-36.67,73.34-73.35,110.02-110.03.66-.66,1.29-1.34,1.99-1.95,2.31-2.02,4.49-2.02,6.81-.01.51.44.97.94,1.45,1.42,11.79,11.79,23.58,23.57,35.35,35.36.95.96,1.8,2.02,2.69,3.03v3.55Z"/>
  </g>
  <ellipse class="cls-1" cx="195" cy="194" rx="184" ry="185"/>
  <g>
    <path d="M303,95c-43.33-47.15-105.02-48-109-48-10.03,0-63.93,1.06-106,45-40.26,42.05-40.68,93.09-40.45,104.96.15,7.84,2.03,62.28,43.56,102.34,16.78,16.19,35.75,24.96,41.89,27.69,6.38,2.84,21.84,9.2,43,12,12.65,1.67,38.41,4.78,68-6,12.8-4.66,22.57-10.56,29-15,1.48-3.07,1.07-6.65-1-9-2.59-2.94-7.37-3.51-11-1-8.13,5.16-21.39,12.25-39,16-32.05,6.83-57.91-1.8-70-6-9.76-3.39-29.68-10.56-49-29-4.74-4.52-20.71-20.5-31-47-3.34-8.61-8.73-25.16-9-46-.67-52.46,31.68-88.42,35-92,39.21-42.27,91.32-42.15,99-42,53.13,1.02,86.24,33.96,93,41"/>
    <path d="M318.41,147.93c4.62,11.98,8.05,26.08,8.59,42.07,1.17,34.55-11.77,60.24-18,71-3.48,3.86-2.54,9.67,1,12,3.3,2.17,8.52,1.11,11-3,1.66-2.71,3.8-6.43,6-11,3.78-7.83,5.81-14.11,6.86-17.42,3.91-12.27,8.64-27.1,9.14-45.58.63-23.6-5.97-41.43-10-52-.59-1.56-1.46-3.76-2.64-6.45"/>
    <circle cx="293" cy="292" r="8"/>
  </g>
</svg>